<svg xmlns="http://www.w3.org/2000/svg" xmlns:xlink="http://www.w3.org/1999/xlink" width="146" height="145" viewBox="0 0 146 145">
  <defs>
    <filter id="Ellipse_9" x="12" y="12" width="134" height="133" filterUnits="userSpaceOnUse">
      <feOffset dx="6" dy="6" input="SourceAlpha"/>
      <feGaussianBlur stdDeviation="9" result="blur"/>
      <feFlood flood-opacity="0.161"/>
      <feComposite operator="in" in2="blur"/>
      <feComposite in="SourceGraphic"/>
    </filter>
    <filter id="Ellipse_10" x="0" y="0" width="134" height="133" filterUnits="userSpaceOnUse">
      <feOffset dx="-6" dy="-6" input="SourceAlpha"/>
      <feGaussianBlur stdDeviation="9" result="blur-2"/>
      <feFlood flood-color="#fff"/>
      <feComposite operator="in" in2="blur-2"/>
      <feComposite in="SourceGraphic"/>
    </filter>
  </defs>
  <g id="Group_26" data-name="Group 26" transform="translate(-114 -626)">
    <g transform="matrix(1, 0, 0, 1, 114, 626)" filter="url(#Ellipse_9)">
      <g id="Ellipse_9-2" data-name="Ellipse 9" transform="translate(33 33)" fill="#e7f0ff" stroke="rgba(112,112,112,0)" stroke-width="1">
        <ellipse cx="40" cy="39.5" rx="40" ry="39.5" stroke="none"/>
        <ellipse cx="40" cy="39.5" rx="39.5" ry="39" fill="none"/>
      </g>
    </g>
    <g transform="matrix(1, 0, 0, 1, 114, 626)" filter="url(#Ellipse_10)">
      <g id="Ellipse_10-2" data-name="Ellipse 10" transform="translate(33 33)" fill="#e7f0ff" stroke="rgba(112,112,112,0)" stroke-width="1">
        <ellipse cx="40" cy="39.5" rx="40" ry="39.5" stroke="none"/>
        <ellipse cx="40" cy="39.5" rx="39.5" ry="39" fill="none"/>
      </g>
    </g>
    <g id="pause" transform="translate(166.271 679)">
      <path id="Path_1" data-name="Path 1" d="M15.959,34.7a5.615,5.615,0,0,1-5.615,5.615h0A5.615,5.615,0,0,1,4.729,34.7V5.615A5.615,5.615,0,0,1,10.344,0h0a5.615,5.615,0,0,1,5.615,5.615Z" transform="translate(0 0)" fill="#91a8ce"/>
      <path id="Path_2" data-name="Path 2" d="M40.845,34.7a5.615,5.615,0,0,1-5.615,5.615h0A5.615,5.615,0,0,1,29.615,34.7V5.615A5.616,5.616,0,0,1,35.23,0h0a5.615,5.615,0,0,1,5.615,5.615Z" transform="translate(-3.814 0)" fill="#91a8ce"/>
    </g>
  </g>
</svg>
